:SAMPLES-PER-SECOND 30
:FULLY-SPECIFIED
:DEGREES
1440
root  -29.5186 38.2458 -1.84519 -154.541 -85.8456 146.974
RightUpLeg  -6.20932 1.05414 -9.58792
RightLeg  55.7401 2.09624 2.88696
RightFoot  -8.83108 -0.312393 11.7174
RightToes  0.000482159 0.542163 -0.142577
Spine  34.8202 -0.862793 -1.08189
Spine1  10.1404 -0.952315 -1.44857
HEad  -20.3498 8.33087 -8.36788
LeftShoulder1  11.6912 -17.6563 -48.2246
LeftArm  -3.68849 17.0597 -16.3365
LeftForeArm  6.68449 -17.2218 -5.30359
LeftHand  -0.25398 0.0180481 5.50724
RightShoulder  6.87467 12.2007 37.7354
RightArm  1.60775 -1.459 33.527
RightForeArm  -14.3584 29.8946 7.25042
RightHand  -4.17368 10.6901 -29.9135
LeftUpLeg  -18.3709 8.47985 -0.0908913
LeftLeg  5.23545 14.8038 -6.59249
LeftFoot  17.1863 -1.56403 5.73844
LeftToes  1.06246e-005 4.65854e-005 -8.18503e-006
1441
root  -28.6654 38.0728 -2.07927 -159.876 -85.1321 151.063
RightUpLeg  -0.94109 1.52672 -8.62463
RightLeg  51.0872 2.30675 2.73555
RightFoot  -14.7966 0.247407 12.1284
RightToes  0.000482159 0.542163 -0.142577
Spine  32.3437 -0.649309 -0.774081
Spine1  10.3899 -0.498314 -1.76277
HEad  -16.9862 10.0829 -7.9089
LeftShoulder1  11.4836 -17.0872 -48.6863
LeftArm  -2.07032 23.7439 -17.1963
LeftForeArm  7.01206 -19.4573 -4.801
LeftHand  -0.25398 0.0180481 5.50724
RightShoulder  6.71827 11.7612 37.964
RightArm  1.82922 -5.03994 34.5981
RightForeArm  -14.8126 28.2903 6.8681
RightHand  -3.98434 10.3323 -29.244
LeftUpLeg  -17.0858 7.66498 1.26549
LeftLeg  3.0237 17.3675 -7.31234
LeftFoot  18.1661 -0.843789 2.78708
LeftToes  1.06246e-005 4.65854e-005 -8.18503e-006
1442
root  -27.6901 37.9776 -2.26191 -167.053 -84.3716 157.322
RightUpLeg  3.209 -0.345174 -7.99175
RightLeg  44.6425 1.45153 1.22315
RightFoot  -22.1208 0.71008 9.18561
RightToes  0.000482159 0.542163 -0.142577
Spine  29.7931 -0.808463 0.652014
Spine1  11.133 0.0173486 -2.53719
HEad  -14.64 11.5802 -8.1484
LeftShoulder1  11.2219 -16.4312 -49.1484
LeftArm  -2.42399 28.8259 -18.1741
LeftForeArm  8.11471 -21.0465 -4.49193
LeftHand  -0.25398 0.0180481 5.50724
RightShoulder  6.53982 11.3309 38.0363
RightArm  2.80855 -6.7938 35.5496
RightForeArm  -13.6905 25.7763 6.195
RightHand  -3.24314 8.53117 -26.9419
LeftUpLeg  -15.3456 6.76119 2.82521
LeftLeg  -0.672553 20.2408 -8.36282
LeftFoot  17.6956 0.148719 -1.02361
LeftToes  1.06246e-005 4.65854e-005 -8.18503e-006
1443
root  -26.5566 37.9534 -2.37132 -177.015 -83.5138 166.862
RightUpLeg  4.84496 -3.44183 -7.46683
RightLeg  39.324 0.966612 0.55097
RightFoot  -26.434 0.541369 5.36419
RightToes  0.000482159 0.542163 -0.142577
Spine  27.651 -1.26059 3.42856
Spine1  12.1118 0.679668 -3.90082
HEad  -13.8435 12.4394 -9.65938
LeftShoulder1  10.9548 -15.7371 -49.7102
LeftArm  -4.50785 31.6866 -19.6018
LeftForeArm  9.86225 -21.1952 -4.35013
LeftHand  -0.25398 0.0180481 5.50724
RightShoulder  6.40546 11.0197 38.0563
RightArm  3.87441 -7.20518 35.9991
RightForeArm  -10.6353 22.9753 5.54793
RightHand  -2.11571 5.38509 -22.8152
LeftUpLeg  -13.9762 6.75804 4.38307
LeftLeg  -4.50596 22.3213 -9.05266
LeftFoot  13.9439 1.14159 -5.53973
LeftToes  1.06246e-005 4.65854e-005 -8.18503e-006
1444
root  -25.3033 38.0051 -2.41156 171.947 -82.3551 177.954
RightUpLeg  3.65798 -5.70359 -6.29112
RightLeg  37.2944 1.36688 0.845545
RightFoot  -26.763 0.170631 2.57101
RightToes  0.000482159 0.542163 -0.142577
Spine  26.2326 -1.65123 6.94157
Spine1  12.4652 1.42425 -5.1919
HEad  -13.6175 13.1983 -11.9394
LeftShoulder1  10.6709 -15.1468 -49.9526
LeftArm  -7.69913 32.8341 -22.1093
LeftForeArm  12.0086 -19.5836 -4.21431
LeftHand  -0.25398 0.0180481 5.50724
RightShoulder  6.37156 10.9099 38.1535
RightArm  4.24708 -7.17408 35.5694
RightForeArm  -5.87272 20.4438 5.57418
RightHand  -1.16951 2.21386 -17.9789
LeftUpLeg  -13.6335 7.01028 6.17995
LeftLeg  -6.9053 24.4424 -9.19334
LeftFoot  8.31578 1.62101 -9.59347
LeftToes  1.06246e-005 4.65854e-005 -8.18503e-006
1445
root  -23.9941 38.161 -2.45847 167.07 -81.6954 -177.01
RightUpLeg  1.21111 -6.52873 -5.04118
RightLeg  37.1837 1.71584 1.12377
RightFoot  -24.9786 -0.00719334 1.36213
RightToes  0.000482159 0.542163 -0.142577
Spine  25.5644 -1.69446 8.82883
Spine1  12.2348 1.72773 -5.2402
HEad  -13.0026 14.1975 -13.8667
LeftShoulder1  10.4044 -14.7867 -49.6661
LeftArm  -10.9494 33.0898 -25.4404
LeftForeArm  14.0405 -16.8388 -4.11847
LeftHand  -0.25398 0.0180481 5.50724
RightShoulder  6.3755 10.9174 38.1575
RightArm  4.51742 -7.24142 34.6516
RightForeArm  -1.3904 18.5685 5.98676
RightHand  -0.631012 -0.0791098 -13.8682
LeftUpLeg  -13.8146 7.38166 7.1566
LeftLeg  -7.40795 25.9021 -9.19123
LeftFoot  4.75209 1.5276 -10.9357
LeftToes  1.06246e-005 4.65854e-005 -8.18503e-006
